# xmcd
# 
# Track frame offsets:
#     150
#     16525
#     30302
#     47145
#     61700
#     75655
#     90742
#     107205
#     123972
#     139217
#     153725
#     169362
#     186760
#     205170
#     219775
#     236580
#     248707
#     263672
#     275407
#     291705
#     314650
#     327092
# 
# Disc length: 4623
# 
# Revision: 3
# Processed by: cddbd v1.5.2PL0 Copyright (c) Steve Scherf et al.
# Submitted via: BonkEnc v1.0.6
# 
DISCID=37120d16
DTITLE=Věra Martinová - Vrcholky (Best of)
DYEAR=1995
DGENRE=Country
TTITLE0=Plačou tvoje modrý oči
TTITLE1=Strom Vánoční
TTITLE2=Dal jen vejdi
TTITLE3=Brzy bude rano
TTITLE4=Malý dům nad skálou
TTITLE5=Až na vrcholky hor
TTITLE6=Rodeo je jako svět
TTITLE7=Toulavý džiny
TTITLE8=Nejsme si cizi
TTITLE9=Pojď se toulat oblohou
TTITLE10=Z nudy sudy válet
TTITLE11=Neříkej, že jsi zapomněl
TTITLE12=O, Pane náš
TTITLE13=Půlnoční slunce
TTITLE14=Jednou si cowboy
TTITLE15=Zázračný housle
TTITLE16=Mý blues
TTITLE17=V sedle je mi líp
TTITLE18=Ja se stávám vodou
TTITLE19=Nika
TTITLE20=Nebe, peklo, raj
TTITLE21=Hymna tulaků
EXTD=YEAR: 1995 ID3G: 2
EXTT0=
EXTT1=
EXTT2=
EXTT3=
EXTT4=
EXTT5=
EXTT6=
EXTT7=
EXTT8=
EXTT9=
EXTT10=
EXTT11=
EXTT12=
EXTT13=
EXTT14=
EXTT15=
EXTT16=
EXTT17=
EXTT18=
EXTT19=
EXTT20=
EXTT21=
PLAYORDER=
